<?xml version="1.0" encoding="utf-8"?>
<!-- Generator: Adobe Illustrator 16.0.0, SVG Export Plug-In . SVG Version: 6.00 Build 0)  -->
<!DOCTYPE svg PUBLIC "-//W3C//DTD SVG 1.1//EN" "http://www.w3.org/Graphics/SVG/1.1/DTD/svg11.dtd">
<svg version="1.1" id="Layer_1" xmlns="http://www.w3.org/2000/svg" xmlns:xlink="http://www.w3.org/1999/xlink" x="0px" y="0px"
	 width="60px" height="60px" viewBox="0 0 60 60" enable-background="new 0 0 60 60" xml:space="preserve">
<g>
	<path fill="#D11F39" d="M42.9,41.5c-0.4-4.6-3.3-7.9-7-7.9c-2.5,0-4.7,1.4-6,3.8c-1.3-2.4-3.4-3.8-5.8-3.8c-3.7,0-6.6,3.3-7,7.9
		c0,0.2-0.2,1.3,0.2,3c0.5,2.5,1.8,4.8,3.6,6.6l9,9l9.2-9c1.8-1.8,3-4.1,3.6-6.6C43,42.7,42.9,41.7,42.9,41.5z"/>
	<path fill="#D11F39" d="M44.2,25.6C37.9,22.4,30,22.8,30,22.8s-7.9-0.4-14.3,2.8c0,0,2.3-24.4,14.3-25.6
		C41.9,1.2,44.2,25.6,44.2,25.6z"/>
	<g>
		<path fill="#690A1F" d="M30,0c11.4,1.1,14,23.5,14.2,25.5c1.3-0.9,8.8-5.8,15.9-1.9C60.1,23.5,53.4,0,30,0z"/>
		<path fill="#9F1C33" d="M-0.1,23.5c7.1-3.8,14.5,1,15.9,1.9C16,23.5,18.6,1.1,30,0C6.6,0-0.1,23.5-0.1,23.5z"/>
	</g>
</g>
</svg>
