<?xml version="1.0" encoding="utf-8"?>
<!-- Generator: Adobe Illustrator 16.0.0, SVG Export Plug-In . SVG Version: 6.00 Build 0)  -->
<!DOCTYPE svg PUBLIC "-//W3C//DTD SVG 1.1//EN" "http://www.w3.org/Graphics/SVG/1.1/DTD/svg11.dtd">
<svg version="1.1" id="Layer_1" xmlns="http://www.w3.org/2000/svg" xmlns:xlink="http://www.w3.org/1999/xlink" x="0px" y="0px"
	 width="60px" height="60px" viewBox="0 0 60 60" enable-background="new 0 0 60 60" xml:space="preserve">
<path fill="#D20637" d="M44.2,25.6C37.9,22.4,30,22.8,30,22.8s-7.9-0.4-14.2,2.8c0,0,2.3-24.4,14.2-25.6
	C41.9,1.2,44.2,25.6,44.2,25.6z"/>
<g>
	<path fill="#6A031D" d="M30,0c11.3,1.1,14,23.5,14.2,25.5c1.3-0.9,8.8-5.8,15.8-1.9C60,23.5,53.4,0,30,0z"/>
	<path fill="#A10630" d="M0,23.5c7.1-3.8,14.5,1,15.8,1.9C16,23.5,18.6,1.1,30,0C6.6,0,0,23.5,0,23.5z"/>
</g>
<g>
	<path fill="#D20637" d="M39.7,49.1c-0.7-1.5-3-3.5-5.3-5.5c-1.3-1.1-2.5-2.2-3.2-3c-0.2-0.2-0.5-0.3-0.7-0.2
		c-0.5,0.2-0.8,0.3-1,0.4c-0.3,0.2-0.5,0.2-0.9,0.3c-0.2,0-0.4,0.1-0.5,0.3c-1,1.6-2,1.5-2.7,1.2c-0.2-0.1-0.3-0.2-0.3-0.3
		c-0.1-0.7,0.6-2.2,1.5-3.2c2.3-2.5,3.4-3.1,5.9-1.9c2.8,1.4,5.6,2.4,5.6,2.4c0.4,0.1,0.8-0.1,0.9-0.5c0.1-0.4-0.1-0.8-0.4-1
		c0,0-2.8-1.1-5.5-2.4c-3.2-1.5-4.9-0.5-7.4,2.2c-1,1-2.2,3.1-1.9,4.7c0.1,0.7,0.6,1.1,1.2,1.4c1.6,0.6,3,0,4.1-1.5
		c0.4-0.1,0.7-0.2,1-0.4c0.1-0.1,0.3-0.1,0.5-0.2c0.8,0.8,1.9,1.8,3,2.7c2,1.8,4.4,3.8,4.9,5c0.3,0.6,0,1-0.2,1.1
		c-0.3,0.3-0.7,0.3-0.9,0.2c-0.2-0.2-0.5-0.2-0.8,0c-0.2,0.2-0.4,0.4-0.3,0.7c0,0.5-0.4,0.8-0.5,0.8c-0.4,0.2-0.9,0.2-1.1,0
		c-0.2-0.2-0.5-0.3-0.7-0.2c-0.2,0.1-0.4,0.3-0.4,0.6c0,0.5-0.4,1-0.8,1.2c-0.2,0.1-0.5,0.1-0.8-0.1c-0.2-0.2-0.4-0.2-0.6-0.2
		c-0.2,0.1-0.4,0.2-0.5,0.5c0,0.1-0.1,0.3-0.7,0.3c-0.5,0-1.3-0.3-1.7-0.6c-0.5-0.3-3.5-2.8-6.2-5.2c-0.4-0.3-1-1.1-1.6-1.7
		c-0.5-0.6-1-1.1-1.2-1.3c-0.3-0.3-0.7-0.2-1,0.1c-0.2,0.3-0.2,0.8,0.1,1.1c0.2,0.2,0.6,0.7,1.1,1.2c0.6,0.7,1.3,1.4,1.7,1.8
		c2.6,2.4,5.7,4.9,6.3,5.3c0.5,0.4,1.6,0.9,2.5,0.9c0.7,0,1.2-0.2,1.6-0.5c0.5,0.2,1,0.2,1.6,0c0.6-0.3,1.2-0.8,1.4-1.5
		c0.5,0.1,1.2,0,1.7-0.3c0.6-0.3,1-0.8,1.2-1.3c0.6,0,1.1-0.2,1.6-0.6C39.9,51.3,40.1,50.2,39.7,49.1z"/>
	<g>
		<g>
			<path fill="#D20637" d="M27.2,36.6H21c-0.4,0-0.7,0.3-0.7,0.8s0.3,0.8,0.7,0.8h6.3c0.4,0,0.7-0.3,0.7-0.8S27.6,36.6,27.2,36.6z"
				/>
		</g>
	</g>
	<g>
		<g>
			<path fill="#D20637" d="M41.7,47.5c-0.2-0.3-0.6-0.4-1-0.2l-2,1.5c-0.3,0.2-0.4,0.7-0.2,1c0.1,0.2,0.4,0.3,0.6,0.3
				c0.1,0,0.3,0,0.4-0.1l2-1.5C41.8,48.3,41.9,47.9,41.7,47.5z"/>
		</g>
	</g>
	<g>
		<g>
			<path fill="#D20637" d="M37.4,51.1c-0.5-0.4-2.7-2.9-4.1-4.5c-0.3-0.3-0.7-0.3-1,0c-0.3,0.3-0.3,0.8,0,1.1c0.4,0.4,3.5,4,4.2,4.6
				c0.1,0.1,0.3,0.2,0.4,0.2c0.2,0,0.4-0.1,0.5-0.3C37.7,51.9,37.7,51.4,37.4,51.1z"/>
		</g>
	</g>
	<g>
		<g>
			<path fill="#D20637" d="M34.6,52.6c-0.8-0.7-2.9-3.1-3.4-3.7c-0.3-0.3-0.7-0.3-1,0s-0.3,0.8,0,1.1c0,0,2.5,3,3.6,3.9
				c0.1,0.1,0.3,0.2,0.4,0.2c0.2,0,0.4-0.1,0.5-0.3C34.9,53.4,34.9,52.9,34.6,52.6z"/>
		</g>
	</g>
	<g>
		<g>
			<path fill="#D20637" d="M31.8,54.2c-1-0.9-3-3.2-3.4-3.7c-0.3-0.3-0.7-0.3-1,0c-0.3,0.3-0.3,0.8,0,1.1c0.6,0.7,2.5,2.9,3.5,3.8
				c0.1,0.1,0.3,0.2,0.4,0.2c0.2,0,0.4-0.1,0.5-0.3C32.2,54.9,32.1,54.4,31.8,54.2z"/>
		</g>
	</g>
	<g>
		<path fill="#D20637" d="M21.4,35.3c-1.2-1.2-6-1.6-7.4-1.7c-0.2,0-0.4,0.1-0.5,0.2c-0.1,0.1-0.2,0.3-0.2,0.6v13.6
			c0,0.4,0.3,0.8,0.7,0.8h4.2c0.3,0,0.6-0.2,0.7-0.5c0.1-0.3,2.5-8.3,2.8-12.2C21.7,35.7,21.6,35.5,21.4,35.3z"/>
		<path fill="#D20637" d="M46,35.1c-5.5,0-8.5,1.5-8.6,1.6C37.2,36.8,37,37,37,37.2c-0.1,0.2,0,0.4,0.1,0.6
			c0.9,1.5,3.5,9.8,4.1,11.9c0.1,0.3,0.4,0.6,0.7,0.6H46c0.4,0,0.7-0.3,0.7-0.8V35.9C46.7,35.4,46.4,35.1,46,35.1z"/>
	</g>
</g>
</svg>
