<?xml version="1.0" encoding="utf-8"?>
<!-- Generator: Adobe Illustrator 16.0.0, SVG Export Plug-In . SVG Version: 6.00 Build 0)  -->
<!DOCTYPE svg PUBLIC "-//W3C//DTD SVG 1.1//EN" "http://www.w3.org/Graphics/SVG/1.1/DTD/svg11.dtd">
<svg version="1.1" id="Layer_1" xmlns="http://www.w3.org/2000/svg" xmlns:xlink="http://www.w3.org/1999/xlink" x="0px" y="0px"
	 width="60px" height="60px" viewBox="0 0 60 60" enable-background="new 0 0 60 60" xml:space="preserve">
<path fill="#D20637" d="M44.2,25.6C37.9,22.4,30,22.8,30,22.8s-7.9-0.4-14.2,2.8c0,0,2.3-24.4,14.2-25.6
	C41.9,1.2,44.2,25.6,44.2,25.6z"/>
<g>
	<path fill="#6A031D" d="M30,0c11.3,1.1,14,23.5,14.2,25.5c1.3-0.9,8.8-5.8,15.8-1.9C60,23.5,53.4,0,30,0z"/>
	<path fill="#A10630" d="M0,23.5c7.1-3.8,14.5,1,15.8,1.9C16,23.5,18.6,1.1,30,0C6.6,0,0,23.5,0,23.5z"/>
</g>
<path fill="#D20637" d="M30,33.6c-5.8,0-10.5,4.2-10.5,9.3C19.5,48,26.7,60,30,60s10.5-12,10.5-17.1C40.4,37.8,35.8,33.6,30,33.6z"
	/>
</svg>
